{"scene":0,"asset":{"generator":"ImageToStl.com","version":"2.0"},"scenes":[{"name":"Scene","nodes":[0]}],"nodes":[{"name":"Node0","children":[1]},{"name":"Scene","children":[2,3,4,5,6,7,8,9]},{"name":"Cube","mesh":0},{"name":"Cube.001","mesh":1},{"name":"Cube.002","mesh":2},{"name":"Cube.003","mesh":3},{"name":"Cube.004","mesh":4},{"name":"Cube.005","mesh":5},{"name":"Cube.006","mesh":6},{"name":"Cube.007","mesh":7}],"materials":[{"name":"Material0","pbrMetallicRoughness":{"baseColorFactor":[0.8,0.8,0.8,1.0],"metallicFactor":0.0,"roughnessFactor":0.5},"doubleSided":true},{"name":"Material.0011","pbrMetallicRoughness":{"baseColorFactor":[0.50133,0.0,0.005797,1.0],"metallicFactor":0.0,"roughnessFactor":0.69003475},"doubleSided":true},{"name":"Material.0062","pbrMetallicRoughness":{"baseColorFactor":[0.64,0.0,0.001232,1.0],"metallicFactor":0.0,"roughnessFactor":0.69003475},"doubleSided":true},{"name":"Material.0073","pbrMetallicRoughness":{"baseColorFactor":[0.64,0.0,0.002279,1.0],"metallicFactor":0.0,"roughnessFactor":0.69003475},"doubleSided":true},{"name":"Material.0034","pbrMetallicRoughness":{"baseColorFactor":[0.233753,0.421964,0.578433,1.0],"metallicFactor":0.0,"roughnessFactor":0.69003475},"doubleSided":true},{"name":"Material.0085","pbrMetallicRoughness":{"baseColorFactor":[0.474063,0.001529,0.0,1.0],"metallicFactor":0.0,"roughnessFactor":0.69003475},"doubleSided":true},{"name":"Material.0056","pbrMetallicRoughness":{"baseColorFactor":[0.8,0.468863,0.0,1.0],"metallicFactor":0.0,"roughnessFactor":0.69003475},"doubleSided":true},{"name":"Material.0047","pbrMetallicRoughness":{"baseColorFactor":[0.766112,0.8,0.774504,1.0],"metallicFactor":0.0,"roughnessFactor":0.69003475},"doubleSided":true}],"meshes":[{"name":"Mesh0","primitives":[{"indices":3,"material":0,"attributes":{"POSITION":0,"NORMAL":1,"TEXCOORD_0":2}}]},{"name":"Mesh0","primitives":[{"indices":6,"material":1,"attributes":{"POSITION":4,"NORMAL":5}}]},{"name":"Mesh0","primitives":[{"indices":9,"material":2,"attributes":{"POSITION":7,"NORMAL":8}}]},{"name":"Mesh0","primitives":[{"indices":12,"material":3,"attributes":{"POSITION":10,"NORMAL":11}}]},{"name":"Mesh0","primitives":[{"indices":15,"material":4,"attributes":{"POSITION":13,"NORMAL":14}}]},{"name":"Mesh0","primitives":[{"indices":18,"material":5,"attributes":{"POSITION":16,"NORMAL":17}}]},{"name":"Mesh0","primitives":[{"indices":21,"material":6,"attributes":{"POSITION":19,"NORMAL":20}}]},{"name":"Mesh0","primitives":[{"indices":24,"material":7,"attributes":{"POSITION":22,"NORMAL":23}}]}],"accessors":[{"bufferView":0,"componentType":5126,"count":24,"type":"VEC3","min":[-1.0,-1.0,-1.0],"max":[1.0,1.0,1.0]},{"bufferView":1,"componentType":5126,"count":24,"type":"VEC3"},{"bufferView":2,"componentType":5126,"count":24,"type":"VEC2"},{"bufferView":3,"componentType":5123,"count":108,"type":"SCALAR"},{"bufferView":4,"componentType":5126,"count":4610,"type":"VEC3","min":[-0.906393,1.6870742,-1.0090839],"max":[0.906299,4.2719927,0.8782724]},{"bufferView":5,"componentType":5126,"count":4610,"type":"VEC3"},{"bufferView":6,"componentType":5123,"count":27648,"type":"SCALAR"},{"bufferView":7,"componentType":5126,"count":4610,"type":"VEC3","min":[-0.329452,0.9865992,-0.7581849],"max":[0.359073,1.8804303,-0.069659784]},{"bufferView":8,"componentType":5126,"count":4610,"type":"VEC3"},{"bufferView":9,"componentType":5123,"count":27648,"type":"SCALAR"},{"bufferView":10,"componentType":5126,"count":4610,"type":"VEC3","min":[-0.329452,0.9865991,0.00016622298],"max":[0.359073,1.8804302,0.6886903]},{"bufferView":11,"componentType":5126,"count":4610,"type":"VEC3"},{"bufferView":12,"componentType":5123,"count":27648,"type":"SCALAR"},{"bufferView":13,"componentType":5126,"count":1313,"type":"VEC3","min":[0.49132,3.1058125,-0.6805456],"max":[0.953634,3.9580235,0.55862355]},{"bufferView":14,"componentType":5126,"count":1313,"type":"VEC3"},{"bufferView":15,"componentType":5123,"count":7680,"type":"SCALAR"},{"bufferView":16,"componentType":5126,"count":1922,"type":"VEC3","min":[-1.296529,2.4626513,-0.7075947],"max":[-0.650725,3.7071514,0.54574656]},{"bufferView":17,"componentType":5126,"count":1922,"type":"VEC3"},{"bufferView":18,"componentType":5123,"count":11520,"type":"SCALAR"},{"bufferView":19,"componentType":5126,"count":9840,"type":"VEC3","min":[-0.278752,4.1511416,-0.4067025],"max":[0.249581,4.4105635,0.122131586]},{"bufferView":20,"componentType":5126,"count":9840,"type":"VEC3"},{"bufferView":21,"componentType":5123,"count":15360,"type":"SCALAR"},{"bufferView":22,"componentType":5126,"count":5634,"type":"VEC3","min":[-0.665532,4.0089555,-0.7459146],"max":[0.603418,4.3303294,0.5458056]},{"bufferView":23,"componentType":5126,"count":5634,"type":"VEC3"},{"bufferView":24,"componentType":5123,"count":33792,"type":"SCALAR"}],"bufferViews":[{"target":34962,"buffer":0,"byteLength":288,"byteOffset":0},{"target":34962,"buffer":0,"byteLength":288,"byteOffset":288},{"target":34962,"buffer":0,"byteLength":192,"byteOffset":576},{"target":34963,"buffer":0,"byteLength":216,"byteOffset":768},{"target":34962,"buffer":0,"byteLength":55320,"byteOffset":984},{"target":34962,"buffer":0,"byteLength":55320,"byteOffset":56304},{"target":34963,"buffer":0,"byteLength":55296,"byteOffset":111624},{"target":34962,"buffer":0,"byteLength":55320,"byteOffset":166920},{"target":34962,"buffer":0,"byteLength":55320,"byteOffset":222240},{"target":34963,"buffer":0,"byteLength":55296,"byteOffset":277560},{"target":34962,"buffer":0,"byteLength":55320,"byteOffset":332856},{"target":34962,"buffer":0,"byteLength":55320,"byteOffset":388176},{"target":34963,"buffer":0,"byteLength":55296,"byteOffset":443496},{"target":34962,"buffer":0,"byteLength":15756,"byteOffset":498792},{"target":34962,"buffer":0,"byteLength":15756,"byteOffset":514548},{"target":34963,"buffer":0,"byteLength":15360,"byteOffset":530304},{"target":34962,"buffer":0,"byteLength":23064,"byteOffset":545664},{"target":34962,"buffer":0,"byteLength":23064,"byteOffset":568728},{"target":34963,"buffer":0,"byteLength":23040,"byteOffset":591792},{"target":34962,"buffer":0,"byteLength":118080,"byteOffset":614832},{"target":34962,"buffer":0,"byteLength":118080,"byteOffset":732912},{"target":34963,"buffer":0,"byteLength":30720,"byteOffset":850992},{"target":34962,"buffer":0,"byteLength":67608,"byteOffset":881712},{"target":34962,"buffer":0,"byteLength":67608,"byteOffset":949320},{"target":34963,"buffer":0,"byteLength":67584,"byteOffset":1016928}],"buffers":[{"byteLength":1084512,"uri":"data:application/octet-stream;base64,"}]}